<svg width="599" height="644" viewBox="0 0 599 644" fill="none" xmlns="http://www.w3.org/2000/svg">
<path d="M464.519 88.488C460.949 83.128 463.889 34.288 454.179 17.458C443.259 -1.47199 399.939 0.0280744 399.939 0.0280744C366.429 0.328074 345.969 17.208 342.609 45.238C339.239 73.268 342.899 101.658 337.709 103.348C336.619 103.698 335.819 100.568 335.819 100.568L332.829 101.588C332.829 101.588 330.539 107.648 333.249 110.318C334.929 111.968 338.459 111.878 338.459 111.878C338.459 111.878 323.539 127.208 324.249 139.218C324.959 151.228 344.359 154.348 344.499 153.218C344.639 152.088 343.789 149.968 343.789 149.968C343.789 149.968 342.329 155.758 361.409 155.338C380.489 154.918 390.659 143.888 391.929 145.168C393.199 146.438 388.539 151.528 392.069 152.238C395.599 152.948 402.669 146.158 402.669 146.158C402.669 146.158 403.359 157.348 421.799 155.368C440.239 153.388 452.219 140.288 452.219 140.288C452.219 140.288 453.719 142.668 452.089 146.968C454.099 148.258 456.029 149.008 458.549 149.328C466.079 146.728 482.639 136.258 483.219 121.138C483.809 105.688 468.139 93.928 464.519 88.488Z" fill="#563333"/>
<path d="M456.369 86.698C454.769 84.018 454.729 69.318 454.699 56.348C454.659 40.018 454.609 23.128 452.289 15.578C452.119 15.038 451.899 14.508 451.649 13.998C441.169 2.43805 416.979 0.358086 405.799 0.0380859L405.759 0.368042C403.609 1.18804 401.349 2.15807 399.109 3.26807C398.029 2.69807 394.919 1.25804 390.099 0.618042C380.509 1.74804 372.229 4.42805 365.369 8.49805C370.559 6.27805 377.599 3.70805 382.969 3.37805C388.909 3.00805 393.299 4.168 395.749 5.078C392.209 7.138 388.929 9.60806 386.559 12.5081C386.289 12.8381 386.049 13.1781 385.819 13.5281C382.709 13.5181 361.169 14.128 353.509 30.488C348.979 40.168 348.069 61.968 347.269 81.198C346.749 93.848 346.199 106.928 344.579 109.078C342.099 112.378 337.119 111.728 334.169 110.968C335.959 111.918 338.429 111.858 338.429 111.858C338.429 111.858 337.509 112.808 336.139 114.408C336.919 114.508 337.749 114.578 338.589 114.578C341.599 114.578 344.819 113.748 346.979 110.868C349.059 108.098 349.559 98.3281 350.259 81.3081C351.009 63.2981 351.939 40.878 356.219 31.748C362.249 18.878 378.689 16.878 384.279 16.568C382.179 22.148 382.899 28.5581 382.939 28.8981L385.919 28.5381C385.909 28.4581 385.119 21.538 387.549 16.498C396.279 16.478 415.529 17.758 419.179 24.088C421.349 27.868 422.479 38.358 423.559 48.498C425.349 65.168 426.569 74.6381 430.899 75.2681C434.219 75.7581 437.019 75.308 439.069 74.978C440.069 74.818 441.759 74.5481 441.989 74.7981C442.749 75.6281 442.729 79.258 442.529 80.698C441.459 81.288 438.189 82.618 435.779 82.618V85.618C438.969 85.618 444.519 83.628 445.209 82.238C445.599 81.448 446.199 75.828 444.559 73.248C444.239 68.038 441.359 23.938 436.989 15.338C433.389 8.25801 414.979 5.09806 404.989 3.88806C407.349 2.92806 409.609 2.11804 411.599 1.48804C429.069 3.39804 446.839 8.1481 449.389 16.4281C451.579 23.5381 451.629 40.958 451.669 56.318C451.719 73.988 451.849 84.978 453.769 88.198C454.429 89.308 455.399 90.728 456.519 92.368C461.789 100.078 470.619 112.998 466.859 121.958C463.699 129.508 449.419 141.878 440.339 149.218C447.839 145.008 452.189 140.248 452.189 140.248C452.189 140.248 452.689 141.058 452.799 142.588C460.119 136.008 467.349 128.568 469.619 123.128C474.009 112.658 464.609 98.8981 458.989 90.6781C457.929 89.1081 456.989 87.738 456.369 86.698ZM434.339 16.738C437.609 23.178 440.359 54.358 441.479 71.748C440.609 71.738 439.639 71.8881 438.609 72.0481C436.649 72.3581 434.219 72.748 431.359 72.338C429.089 71.758 427.509 57.018 426.559 48.218C425.389 37.278 424.279 26.9481 421.789 22.6281C417.289 14.8081 397.889 13.6681 389.639 13.5481C392.239 10.7181 395.849 8.34807 399.649 6.39807C409.129 7.20807 431.119 10.398 434.339 16.738Z" fill="#442626"/>
<path d="M416.489 155.568C417.989 155.628 419.639 155.578 421.479 155.388C431.239 147.388 452.659 128.748 452.659 119.318C452.659 107.748 431.819 85.0881 430.929 84.1281L430.389 83.5481L429.609 83.6581C424.649 84.3881 416.739 85.508 414.869 85.708L414.269 85.358L412.659 86.8981L413.139 87.8781C413.139 87.8881 413.149 87.8881 413.149 87.8981C413.979 90.6281 419.649 118.088 417.289 127.648C415.949 133.088 409.339 141.838 403.449 148.828C403.829 149.628 404.389 150.528 405.219 151.398C411.429 144.078 418.679 134.538 420.199 128.368C421.629 122.578 420.439 111.628 419.189 103.468C418.409 98.368 417.549 94.008 417.119 91.868C416.819 90.408 416.599 89.3381 416.409 88.5381C417.719 88.3881 419.619 88.118 422.399 87.728C425.179 87.338 427.949 86.938 429.259 86.748C435.419 93.518 449.659 110.938 449.659 119.328C449.659 127.478 426.809 147.358 416.489 155.568Z" fill="#442626"/>
<path d="M370.049 139.518C366.829 130.588 373.569 114.988 373.639 114.828L374.129 113.718L360.529 103.888L359.629 104.858C358.889 105.658 341.419 124.568 339.749 137.168C338.899 143.608 341.529 149.218 344.459 153.278C344.479 153.258 344.499 153.238 344.499 153.218C344.549 152.828 344.479 152.308 344.359 151.808C345.019 152.668 346.399 153.658 349.239 154.368C345.979 150.778 341.789 144.638 342.729 137.558C344.069 127.438 357.359 111.918 360.949 107.878L370.449 114.738C368.879 118.678 364.129 131.868 367.249 140.528C368.849 144.968 371.359 149.668 373.639 153.508C374.659 153.218 375.649 152.908 376.589 152.568C374.259 148.738 371.649 143.938 370.049 139.518Z" fill="#442626"/>
<path opacity="0.22" d="M449.77 12.158C444.52 7.52796 436.92 4.64792 429.22 2.86792C419.87 7.26792 401.94 15.1779 389.66 15.2079C376.4 15.2479 370.69 9.65798 368.5 6.80798C357.44 12.368 349.63 21.1879 345.51 32.7079C349.87 37.5379 360.91 42.5879 388.47 40.8679C426.03 38.5279 443.49 20.708 449.77 12.158Z" fill="#FFB3B3"/>
<path d="M403.79 196.218C422.61 196.218 450.409 152.198 450.409 152.198C446.229 150.628 443.3 149.128 443.26 149.118C437.04 146.738 428.61 143.238 427.61 141.338C426.28 138.808 426.42 126.698 426.51 85.448H392C392.09 126.698 392.229 138.808 390.899 141.338C389.939 143.148 382.399 146.568 376.449 149.048C376.439 149.048 371.989 150.648 366.439 152.818C366.429 152.818 383.02 196.218 403.79 196.218Z" fill="#E28C71"/>
<path d="M426.509 85.4382H391.989C392.079 126.688 392.219 138.808 390.889 141.328C390.299 142.448 387.189 144.178 383.499 145.928C390.609 146.568 403.719 145.488 412.729 139.818C418.819 135.978 424.139 126.388 426.469 121.028C426.439 112.688 426.479 101.198 426.509 85.4382Z" fill="#B75C47"/>
<path d="M365.789 30.8081C349.509 44.5881 358.929 76.7981 358.939 78.3081C358.949 80.9081 354.919 88.438 354.879 100.568C354.829 115.788 363.919 138.428 391.549 133.958C420.619 129.258 427.019 95.078 427.019 95.078C427.019 95.078 431.799 98.3881 435.239 95.7981C440.319 91.9781 440.409 82.3681 440.409 82.3681C440.409 82.3681 426.499 82.0281 423.739 79.6081C412.649 69.8781 423.919 34.2881 405.689 28.1781C387.459 22.0681 371.339 26.1081 365.789 30.8081Z" fill="#E28C71"/>
<path d="M365.789 78.3081C365.999 81.5081 365.33 84.108 364.3 84.108C363.27 84.108 362.249 81.5181 362.039 78.3081C361.829 75.0981 362.499 72.5081 363.529 72.5081C364.559 72.5081 365.569 75.1081 365.789 78.3081Z" fill="#1E1F24"/>
<path d="M398.04 78.3081C398.26 81.5081 397.59 84.108 396.55 84.108C395.52 84.108 394.5 81.5181 394.29 78.3081C394.07 75.1081 394.74 72.5081 395.77 72.5081C396.81 72.5081 397.82 75.1081 398.04 78.3081Z" fill="#1E1F24"/>
<path d="M378.539 100.568C375.709 100.568 372.549 99.7081 370.809 96.4581C367.829 90.8981 373.769 86.8081 376.619 84.8481C377.129 84.4981 377.759 84.0682 377.979 83.8582C378.389 82.7282 378.149 77.3882 377.639 72.9882L380.619 72.6682C381.199 77.7382 381.629 84.1081 380.369 85.6981C379.979 86.1981 379.319 86.6481 378.319 87.3281C374.989 89.6281 371.859 92.1082 373.439 95.0582C375.799 99.4682 383.289 96.7381 383.369 96.7081L384.439 99.5182C384.239 99.5882 381.569 100.568 378.539 100.568Z" fill="#B75C47"/>
<path d="M369.649 62.5279C365.929 62.0879 362.139 62.378 358.509 63.288C357.499 63.548 356.789 64.7379 357.129 65.7479C357.479 66.7979 358.509 67.4179 359.599 67.1479C360.449 66.9379 361.299 66.7579 362.159 66.6179C362.329 66.5879 362.489 66.568 362.659 66.548C362.709 66.538 363.069 66.4979 363.129 66.4979C363.569 66.4479 363.999 66.4179 364.439 66.3879C366.189 66.2779 367.939 66.338 369.679 66.538C370.719 66.658 371.719 65.528 371.669 64.538C371.599 63.338 370.769 62.6579 369.649 62.5279Z" fill="#563333"/>
<path d="M389.499 62.5279C393.219 62.0879 397.009 62.378 400.649 63.288C401.669 63.548 402.379 64.7379 402.059 65.7479C401.729 66.7979 400.699 67.4179 399.609 67.1479C398.759 66.9379 397.899 66.7579 397.039 66.6179C396.869 66.5879 396.709 66.568 396.539 66.548C396.489 66.538 396.119 66.4979 396.069 66.4979C395.629 66.4479 395.199 66.4179 394.759 66.3879C393.009 66.2779 391.259 66.338 389.519 66.538C388.479 66.658 387.469 65.528 387.509 64.538C387.559 63.338 388.379 62.6579 389.499 62.5279Z" fill="#563333"/>
<path d="M370.04 108.878C371.94 103.238 384.03 107.728 384.03 107.728C384.03 107.728 398.18 100.258 398.23 107.808C398.26 113.448 393.21 116.378 384.89 117.458C375.83 118.638 368.56 113.268 370.04 108.878Z" fill="#D86B60"/>
<path d="M399.489 105.398C384.909 112.298 372.009 108.638 368.639 107.458C368.229 108.368 367.799 109.278 367.369 110.188V110.198C369.269 110.908 374.399 112.538 381.359 112.538C386.909 112.538 393.629 111.498 400.779 108.118L399.489 105.398Z" fill="#C95650"/>
<path d="M366.019 87.0581L365.719 86.828C365.479 86.688 365.229 86.6281 364.959 86.6281C364.289 86.5681 363.629 86.508 362.959 86.458C362.749 86.448 362.559 86.4981 362.379 86.5881C362.189 86.6481 362.029 86.7481 361.899 86.8981C361.749 87.0381 361.649 87.1981 361.589 87.3781C361.499 87.5581 361.449 87.748 361.459 87.958C361.479 88.348 361.609 88.7481 361.909 89.0181L362.209 89.2481C362.449 89.3881 362.699 89.448 362.969 89.448C363.639 89.508 364.299 89.5681 364.969 89.6181C365.179 89.6281 365.369 89.5781 365.549 89.4881C365.739 89.4281 365.899 89.3281 366.029 89.1781C366.179 89.0381 366.279 88.878 366.339 88.698C366.429 88.518 366.479 88.3281 366.469 88.1181C366.449 87.7281 366.309 87.3281 366.019 87.0581Z" fill="#B75C47"/>
<path d="M393.46 87.0581L393.76 86.828C393.99 86.688 394.25 86.6281 394.52 86.6281C395.18 86.5681 395.85 86.508 396.51 86.458C396.72 86.448 396.91 86.4981 397.09 86.5881C397.28 86.6481 397.44 86.7481 397.57 86.8981C397.72 87.0381 397.819 87.1981 397.879 87.3781C397.969 87.5581 398.02 87.748 398.01 87.958C398 88.348 397.87 88.7481 397.58 89.0181L397.28 89.2481C397.05 89.3881 396.79 89.448 396.52 89.448C395.86 89.508 395.19 89.5681 394.53 89.6181C394.32 89.6281 394.13 89.5781 393.95 89.4881C393.76 89.4281 393.6 89.3281 393.47 89.1781C393.32 89.0381 393.219 88.878 393.159 88.698C393.069 88.518 393.02 88.3281 393.03 88.1181C393.04 87.7281 393.17 87.3281 393.46 87.0581Z" fill="#B75C47"/>
<path d="M430.24 97.4282C430.47 99.4982 432 101.188 433.66 101.188C435.32 101.188 436.49 99.5082 436.26 97.4282C436.03 95.3582 434.5 93.6682 432.84 93.6682C431.18 93.6682 430.01 95.3482 430.24 97.4282Z" fill="#EDE0CD"/>
<path d="M430.999 81.658C429.199 85.818 428.759 90.8079 428.699 91.6179L431.689 91.908C431.849 89.818 432.569 85.1779 434.179 81.9979C433.149 81.9079 432.069 81.798 430.999 81.658Z" fill="#B75C47"/>
<path d="M396.91 593.138C379.44 593.508 363.04 594.508 361.01 595.958C356.63 599.068 341.43 626.678 341.43 626.678L351.68 625.618C351.68 625.618 363.05 603.328 365.16 602.578C366.15 602.228 381.1 602.188 396.91 602.258V593.138Z" fill="#201E23"/>
<path d="M339.74 631.648C339.74 631.648 340.99 619.738 353.42 619.448C366.81 619.138 365.85 632.458 365.85 632.268C365.85 632.078 363.23 632.708 363.23 632.708C363.23 632.708 362.53 641.708 352.79 641.708C343.05 641.708 342.63 632.168 342.63 632.168L339.74 631.648Z" fill="#201E23"/>
<path d="M427.02 594.728C424.57 593.188 403.96 592.738 384.22 593.118V602.268C401.47 602.348 419.27 602.548 420.71 602.578C423.52 602.628 430.51 631.778 430.51 631.778H440.33C440.33 631.768 431.7 597.678 427.02 594.728Z" fill="#201E23"/>
<path d="M424.42 631.648C424.42 631.648 425.66 619.738 438.04 619.448C451.37 619.138 450.42 632.458 450.42 632.268C450.42 632.078 447.81 632.708 447.81 632.708C447.81 632.708 447.11 641.708 437.41 641.708C427.71 641.708 427.3 632.168 427.3 632.168L424.42 631.648Z" fill="#201E23"/>
<path d="M288.74 626.678C288.74 626.678 306.2 599.068 311.24 595.958C316.27 592.848 474.8 591.768 480.17 594.728C485.54 597.688 495.46 631.768 495.46 631.768H484.18C484.18 631.768 476.15 602.618 472.92 602.568C469.7 602.518 318.42 601.818 316.01 602.568C313.6 603.318 300.53 625.608 300.53 625.608L288.74 626.678Z" fill="#373037"/>
<path d="M287.02 631.648C287.02 631.648 288.36 619.738 301.75 619.448C316.17 619.138 315.129 632.458 315.129 632.268C315.129 632.078 312.31 632.708 312.31 632.708C312.31 632.708 311.55 641.708 301.07 641.708C290.59 641.708 290.129 632.168 290.129 632.168L287.02 631.648Z" fill="#373037"/>
<path d="M477.54 631.648C477.54 631.648 478.88 619.738 492.27 619.448C506.69 619.138 505.65 632.458 505.65 632.268C505.65 632.078 502.83 632.708 502.83 632.708C502.83 632.708 502.07 641.708 491.59 641.708C481.11 641.708 480.65 632.168 480.65 632.168L477.54 631.648Z" fill="#373037"/>
<path d="M381.75 411.368V600.928H402.26L404.53 409.858L381.75 411.368Z" fill="#373037"/>
<path d="M403.86 468.668L404.53 409.858L381.75 411.348V468.668H403.86Z" fill="#201E23"/>
<path d="M376.159 416.728C376.159 416.728 374.619 461.888 375.259 461.888C375.899 461.888 410.839 461.888 410.839 461.888V415.698L376.159 416.728Z" fill="#373037"/>
<path d="M241.92 403.448C241.92 403.448 252.37 320.518 260 316.818C267.63 313.118 391.16 314.318 391.16 314.318V329.968C391.16 329.968 274.77 327.458 272.27 331.358C269.77 335.258 260 403.448 260 403.448H241.92Z" fill="#2D262D"/>
<path d="M522 199.798C528.82 207.988 498.5 417.228 496.49 418.028C494.48 418.828 244.57 420.338 244.57 420.338L244.63 400.068L326.68 396.198C326.68 396.198 355.31 200.968 357.93 198.968C360.54 196.958 515.18 191.608 522 199.798Z" fill="#D8BFAB"/>
<path d="M379.39 631.648C379.39 631.648 380.64 619.738 393.07 619.448C406.46 619.138 405.5 632.458 405.5 632.268C405.5 632.078 402.88 632.708 402.88 632.708C402.88 632.708 402.18 641.708 392.44 641.708C382.7 641.708 382.28 632.168 382.28 632.168L379.39 631.648Z" fill="#373037"/>
<path d="M276.96 596.018C276.97 596.688 276.96 640.978 276.96 640.978H281.5C281.5 640.978 285.3 598.838 290.18 588.648C290.66 587.658 276.94 594.808 276.96 596.018Z" fill="#201E23"/>
<path d="M248.44 515.708C248.44 515.708 248.8 566.998 249.23 575.748C249.66 584.498 234.82 633.248 234.82 633.248H261.42C261.42 633.248 288.78 581.058 285.56 578.088C282.33 575.108 277.21 572.998 274.41 569.268C271.61 565.538 276.45 521.888 276.45 510.458C276.44 507.038 249.3 504.778 248.44 515.708Z" fill="#E28C71"/>
<path d="M276.439 510.448C276.439 507.028 249.299 504.778 248.439 515.708C248.439 515.708 248.629 542.358 248.899 560.508H273.54C273.67 546.218 276.439 519.108 276.439 510.448Z" fill="#B75C47"/>
<path d="M279.65 573.048C279.66 573.078 278.55 573.088 278.55 573.088L279.61 573.818C279.29 577.118 274.69 590.598 272.67 595.488C263.6 617.488 259.31 629.448 258.68 629.748C257.09 630.518 230.18 626.398 228.7 627.728C227.22 629.058 224.99 638.908 225.15 640.008C225.31 641.108 263.54 643.878 266.09 640.798C268.64 637.718 278.81 601.218 278.81 600.728C278.81 600.238 292.22 590.448 292.22 587.168C292.22 580.128 279.65 573.048 279.65 573.048Z" fill="#201E23"/>
<path d="M314.26 596.018C314.27 596.688 314.26 640.978 314.26 640.978H318.8C318.8 640.978 322.6 598.838 327.48 588.648C327.96 587.658 314.24 594.808 314.26 596.018Z" fill="#201E23"/>
<path d="M285.739 515.708C285.739 515.708 286.099 566.998 286.529 575.748C286.959 584.498 272.119 633.248 272.119 633.248H298.719C298.719 633.248 326.079 581.058 322.859 578.088C319.639 575.118 314.509 572.998 311.709 569.268C308.909 565.538 313.749 521.888 313.749 510.458C313.739 507.038 286.599 504.778 285.739 515.708Z" fill="#E28C71"/>
<path d="M313.739 510.448C313.739 507.028 286.599 504.778 285.739 515.708C285.739 515.708 285.929 542.358 286.199 560.508H310.839C310.969 546.218 313.739 519.108 313.739 510.448Z" fill="#B75C47"/>
<path d="M316.95 573.048C316.96 573.078 315.85 573.088 315.85 573.088L316.91 573.818C316.59 577.118 311.99 590.598 309.97 595.488C300.89 617.488 296.61 629.448 295.98 629.748C294.39 630.518 267.48 626.398 266 627.728C264.52 629.058 262.29 638.908 262.45 640.008C262.61 641.108 300.84 643.878 303.39 640.798C305.94 637.718 316.11 601.218 316.11 600.728C316.11 600.238 329.52 590.448 329.52 587.168C329.52 580.128 316.95 573.048 316.95 573.048Z" fill="#201E23"/>
<path d="M346.78 201.358C357.262 201.358 365.76 192.861 365.76 182.378C365.76 171.896 357.262 163.398 346.78 163.398C336.297 163.398 327.8 171.896 327.8 182.378C327.8 192.861 336.297 201.358 346.78 201.358Z" fill="#373037"/>
<path d="M388.98 598.858C388.98 598.858 388.52 627.478 388.98 627.478C389.44 627.478 396.91 627.478 396.91 627.478V598.278L388.98 598.858Z" fill="#373037"/>
<path d="M508.38 198.308C508.15 197.708 507.86 196.938 502.39 196.368C496.24 195.978 488.96 195.718 480.99 195.568C479.54 195.558 478.02 195.548 476.41 195.548V198.548C488.66 198.568 502.19 199.028 505.48 199.778C504.64 213.488 485.05 379.658 482.76 392.498C475.39 393.738 415.57 394.548 375.79 394.788L375.81 397.788C376.08 397.788 402.91 397.618 429.53 397.218C484.24 396.388 484.7 395.548 485.34 394.398C486.18 392.888 493.41 332.318 497.65 296.348C509 199.958 508.53 198.718 508.38 198.308Z" fill="#C4A691"/>
<path d="M230.029 544.198C231.689 545.998 278.839 545.298 278.839 545.298L279.209 546.908C285.779 547.168 327.619 547.248 328.869 547.258C333.419 547.278 356.659 391.008 355.889 399.158C355.889 399.158 462.889 398.508 465.009 395.918C467.129 393.328 457.579 292.928 457.579 292.928H345.019L333.979 325.328C333.979 325.328 281.359 324.368 251.509 325.928C240.579 326.498 229.759 338.358 228.999 351.128C225.779 405.158 224.659 538.368 230.029 544.198Z" fill="#201E23"/>
<path d="M462.23 156.178C461.87 154.228 436.98 144.588 436.98 144.588C436.98 144.588 430.08 140.848 429.86 139.428C429.64 138.008 433.02 131.098 432.23 129.868C431.44 128.638 426.44 127.208 426.44 127.208C426.44 127.208 417.02 137.548 403.65 137.548C392.19 137.548 391.78 133.898 391.78 133.898C391.78 133.898 388.25 134.208 388.06 134.448C387.5 135.158 389.51 138.048 389.29 139.468C389.07 140.888 380.79 144.588 380.79 144.588C380.79 144.588 355.9 154.228 355.54 156.178C355.18 158.128 360.9 298.118 360.9 298.118H450.87C450.86 298.118 462.59 158.128 462.23 156.178Z" fill="#EDE0CD"/>
<path d="M333.939 322.318L333.99 325.318C358.5 325.058 390.269 324.838 415.179 324.708L415.159 321.708C407.899 321.738 366.189 321.968 333.939 322.318Z" fill="#100F11"/>
<path d="M298.05 325.048C296.58 325.048 295.1 325.048 293.6 325.058C292.81 328.768 291.83 337.688 289.97 359.498C288.35 378.428 286.31 404.778 283.91 437.808C280.61 483.268 277.51 529.138 276.43 545.348C277.95 545.328 278.84 545.318 278.84 545.318L279.21 546.928C279.25 546.928 279.29 546.928 279.33 546.938C285.05 460.838 294.01 336.118 296.59 325.138C296.97 325.088 297.46 325.068 298.05 325.048Z" fill="#100F11"/>
<path d="M324.149 325.248H372.209C373.009 289.348 374.09 240.308 374.77 204.718C375.38 172.918 389.6 139.358 389.6 139.358L388.01 135.248L379.04 144.488C379.04 144.488 343.279 160.258 335.169 167.358C331.129 170.898 341.52 258.428 341.78 261.908C342.09 266.078 332.219 297.888 324.149 325.248Z" fill="#373037"/>
<path d="M430.85 135.758L439.63 144.498C439.63 144.498 477.27 159.718 485.38 166.818C489.42 170.358 466.52 257.958 466.26 261.438C465.71 268.778 501.43 362.438 498.5 365.858C494.93 370.008 416.54 372.688 416.54 372.688C416.54 372.688 412.23 275.828 411.02 212.888C410.41 181.088 429.36 140.078 429.36 140.078L430.85 135.758Z" fill="#373037"/>
<path d="M474.5 201.358C484.982 201.358 493.479 192.861 493.479 182.378C493.479 171.896 484.982 163.398 474.5 163.398C464.017 163.398 455.52 171.896 455.52 182.378C455.52 192.861 464.017 201.358 474.5 201.358Z" fill="#373037"/>
<path d="M474.5 201.358C484.982 201.358 493.479 192.861 493.479 182.378C493.479 171.896 484.982 163.398 474.5 163.398C464.017 163.398 455.52 171.896 455.52 182.378C455.52 192.861 464.017 201.358 474.5 201.358Z" fill="#373037"/>
<path d="M373.84 250.738C366.19 231.288 357.28 207.828 357.01 204.658C357.69 203.388 362.78 200.758 364.99 199.618C367.45 198.348 368.66 197.708 369.19 197.108C369.62 196.628 369.75 195.978 369.54 195.388C369.07 194.088 367.46 193.838 363.57 193.258C361.86 192.998 358.83 192.548 357.73 192.068C358.49 187.278 369.96 155.348 377.92 144.998C376.86 145.468 375.1 146.258 372.87 147.278C364.91 160.888 353.44 190.548 354.89 193.448C355.64 194.948 357.97 195.438 363.12 196.218C363.57 196.288 364.08 196.368 364.58 196.438C364.25 196.608 363.92 196.778 363.61 196.938C358.45 199.608 354.75 201.668 354.09 203.888C353.34 206.408 363.94 233.998 373.68 258.468C373.73 255.898 373.78 253.318 373.84 250.738Z" fill="#272428"/>
<path d="M422.49 196.128C421.89 195.998 421.23 195.848 420.58 195.688C423.29 194.978 427.42 194.128 431.1 193.498L431.91 193.358L432.23 192.598C432.83 191.168 445.51 160.578 443.24 145.978C441.49 145.248 440.3 144.768 439.85 144.578C443.1 154.318 434.08 180.188 429.78 190.678C416.2 193.048 415.56 194.388 415.26 195.038C415.02 195.548 415.04 196.128 415.32 196.608C415.93 197.668 417.47 198.068 421.84 199.038C424.02 199.528 427.94 200.398 429.06 201.118C428.27 205.288 419.33 232.708 412.08 254.428C412.16 257.218 412.25 260.018 412.34 262.818L412.42 262.848C419.92 240.518 432.45 202.708 432.08 200.458C431.73 198.298 428.38 197.448 422.49 196.128Z" fill="#272428"/>
<path d="M384.75 403.448C384.75 403.448 395.2 320.518 402.83 316.818C410.46 313.118 533.99 314.318 533.99 314.318V329.968C533.99 329.968 417.6 327.458 415.1 331.358C412.6 335.258 402.83 403.448 402.83 403.448H384.75Z" fill="#4F484F"/>
<path d="M396.84 282.828C396.84 282.828 397.64 270.958 399.05 270.358C400.46 269.758 466.649 261.518 466.649 261.518L468.389 188.468C468.389 188.468 490.429 168.258 492.909 175.998C498.819 194.378 506.03 286.138 499.29 290.908C492.55 295.668 396.52 291.698 396.52 291.698L396.84 282.828Z" fill="#373037"/>
<path d="M331.82 171.328C325.49 176.498 313.79 219.918 308.39 254.318C308.27 255.058 297.52 255.108 297.41 255.838C294.65 273.628 303.63 287.768 304.06 288.418C305.32 290.318 340.76 287.788 340.76 287.788C340.76 287.788 354.03 178.598 352.76 174.478C351.49 170.358 337.79 166.448 331.82 171.328Z" fill="#373037"/>
<path d="M396.53 291.688L393.33 291.588C394.41 269.018 396.73 268.398 397.53 268.048C399.66 267.118 465.92 260.878 486.18 258.988L486.46 261.978C453.52 265.048 404.05 269.838 398.95 270.768C397.97 272.838 396.95 282.828 396.53 291.688Z" fill="#272428"/>
<path d="M345.291 201.113L333.357 287.592L336.329 288.002L348.263 201.523L345.291 201.113Z" fill="#272428"/>
<path d="M394.579 285.638C393.889 282.278 395.749 272.338 396.219 272.028C396.689 271.718 404.639 270.808 406.769 272.468C411.479 276.138 409.82 288.078 407.36 290.298C404.9 292.518 396.539 291.298 396.539 291.298C396.539 291.298 394.929 287.318 394.579 285.638Z" fill="#EDE0CD"/>
<path d="M401.15 276.008C400.03 275.398 389.78 275.838 386.98 275.018C384.18 274.188 377.26 260.818 368.11 261.548C358.96 262.278 355.86 264.338 355.86 264.338C355.86 264.338 353.84 263.558 347.88 266.938C341.91 270.328 332.09 283.098 334.29 287.118C335.47 289.268 341.71 282.718 341.71 282.718C341.71 282.718 340.25 287.398 342.84 288.338C345.43 289.278 348.41 284.118 348.41 284.118C348.41 284.118 349.2 287.168 352.5 284.438C352.5 284.438 353.63 287.948 356.81 289.888H376.76C381.13 289.528 388.61 289.658 391.26 289.928C391.26 289.928 395.17 289.928 399.86 289.518C403.36 289.208 404.31 277.718 401.15 276.008Z" fill="#E28C71"/>
<path d="M379.009 283.188C377.759 281.558 377.93 279.068 378.04 277.248C378.13 275.938 378.199 274.588 377.439 273.868C377.329 273.828 377.21 273.798 377.1 273.748C376.85 273.618 376.6 273.498 376.35 273.368C375.44 273.268 374.289 273.918 369.419 276.878C366.079 278.908 359.13 283.138 357.61 283.028C356.64 282.938 356.159 282.598 355.909 282.258C356.719 281.208 357.71 279.998 359.08 278.628C363.62 274.068 370.109 270.608 370.169 270.578L369.979 270.228C369.019 269.778 368.06 269.318 367.09 268.878C364.75 270.268 360.399 273.048 356.949 276.518C355.019 278.458 353.74 280.148 352.81 281.378C352.33 282.018 351.759 282.778 351.389 283.118C351.279 280.158 354.799 269.888 361.389 266.038C360.369 265.508 359.33 264.988 358.29 264.498C351.56 269.558 348.269 279.698 348.429 283.378C348.509 285.158 349.299 285.828 349.959 286.068C350.579 286.298 351.12 286.348 351.62 286.268C352.55 286.118 353.31 285.478 354.05 284.638C354.77 285.318 355.83 285.868 357.34 286.008C359.64 286.218 364.239 283.548 370.989 279.438C372.349 278.608 373.93 277.648 375.05 277.018C375.05 277.028 375.05 277.048 375.05 277.058C374.91 279.218 374.699 282.488 376.629 285.008C379.639 288.938 387.119 288.468 387.959 288.408L387.729 285.418C385.999 285.558 380.719 285.428 379.009 283.188Z" fill="#B75C47"/>
<path d="M341.72 282.708C341.72 282.708 341.26 284.178 341.32 285.638C342.3 281.398 345.87 269.808 356.33 264.088C356.02 264.238 355.87 264.338 355.87 264.338C355.87 264.338 353.85 263.558 347.89 266.938C347.85 266.958 347.81 266.988 347.77 267.008C340.8 274.018 338.69 283.018 338.17 285.938C339.98 284.528 341.72 282.708 341.72 282.708Z" fill="#B75C47"/>
<path d="M391.28 289.918H202.96C202.96 289.918 160.01 205.098 160.01 204.858C160.01 204.618 161.36 203.018 161.36 203.018H275.33L317.43 284.248L391.28 286.318V289.918Z" fill="#CCC2B8"/>
<path d="M411.08 269.488C411.33 269.638 417.2 273.348 417.49 280.988C417.72 286.988 415.05 290.728 413.77 292.158C414.93 292.198 416.15 292.238 417.43 292.278C418.98 289.918 420.68 286.098 420.48 280.868C420.25 274.778 417.08 270.768 414.84 268.668C413.57 268.838 412.38 268.998 411.27 269.148L411.08 269.488Z" fill="#272428"/>
<path d="M315.979 287.448L273.919 205.418C273.919 205.418 160.02 205.098 160.02 204.858C160.02 204.618 161.37 203.018 161.37 203.018H275.34L317.439 284.248L391.29 286.318V288.398L315.979 287.448Z" fill="#EADFD6"/>
<path d="M322.56 255.428C325.53 257.118 328.01 263.128 328.72 265.298L331.57 264.368C331.27 263.458 328.55 255.388 324.04 252.818C320.78 250.958 313.17 251.138 308.84 251.428C308.68 252.398 308.53 253.368 308.38 254.318C308.37 254.378 308.28 254.438 308.13 254.498C312.51 254.158 319.99 253.948 322.56 255.428Z" fill="#272428"/>
<path d="M466.193 209.197L465.224 262.447L468.223 262.501L469.192 209.252L466.193 209.197Z" fill="#272428"/>
<path d="M598.69 643.068L543.46 298.028H528.9L590.041 643.068H598.69Z" fill="#706970"/>
<path d="M8.65991 643.068L69.8 298.028H55.24L0 643.068H8.65991Z" fill="#706970"/>
<path d="M111.92 643.068L157.1 298.028H142.54L103.26 643.068H111.92Z" fill="#706970"/>
<path d="M495.43 643.068L456.15 298.028H441.59L486.78 643.068H495.43Z" fill="#706970"/>
<path d="M582.98 289.168H15.7197V300.848H582.98V289.168Z" fill="#DAD8D8"/>
</svg>
